<?xml version="1.0" encoding="UTF-8"?><svg id="Layer_5" xmlns="http://www.w3.org/2000/svg" width="1920" height="240" viewBox="0 0 1920 240"><defs><style>.cls-1{fill:#0d2541;}</style></defs><rect class="cls-1" y="109.87" width="166" height="134.13"/><rect class="cls-1" x="108.74" y="59.11" width="114.92" height="184.84"/><rect class="cls-1" x="204.5" y="82.66" width="151.37" height="161.29"/><rect class="cls-1" x="344.75" y="24.52" width="183.5" height="219.43"/><rect class="cls-1" x="476.97" y="59.11" width="151.37" height="184.84"/><rect class="cls-1" x="560.38" y="111.47" width="151.37" height="132.48"/><rect class="cls-1" x="704.95" y="43.88" width="175.47" height="200.07"/><rect class="cls-1" x="871.77" y="82.66" width="87.73" height="161.29"/><rect class="cls-1" x="943" width="189.49" height="243.95"/><rect class="cls-1" x="1074.49" y="51.56" width="148.51" height="192.39"/><rect class="cls-1" x="1191" y="74.89" width="132.88" height="169.06"/><rect class="cls-1" x="1322.88" y="43.78" width="146.43" height="200.17"/><rect class="cls-1" x="1462.3" y="82.92" width="146.7" height="161.03"/><rect class="cls-1" x="1563.63" y="109.57" width="146.43" height="134.38"/><rect class="cls-1" x="1709.06" y="74.81" width="101.94" height="168.96"/><rect class="cls-1" x="1804" y="129.03" width="117" height="114.53"/></svg>