<?xml version="1.0" encoding="UTF-8"?><svg id="Layer_7" xmlns="http://www.w3.org/2000/svg" width="163.49" height="183.47" viewBox="0 0 163.49 183.47"><defs><style>.cls-1{fill:#e5dd74;}.cls-2{fill:#de61a9;}</style></defs><path class="cls-1" d="m90.74,9.89c8,0,15.73,1.16,23.04,3.3-33.91,9.95-58.67,41.28-58.67,78.41s24.76,68.46,58.67,78.41c-7.31,2.14-15.04,3.3-23.04,3.3-45.13,0-81.71-36.58-81.71-81.71,0-45.13,36.58-81.71,81.71-81.71Z"/><path class="cls-2" d="m29.38,144.2c0-1.3.7-12.05.7-23.1v-15.83c0-7.83-3.91-6.37-3.91-8.54s4.09-2.89,9.13-3.78c3.04-.53,7.91-1.66,12.78-3.49,5.31-1.99,10.18-4.78,13.13-6.33,3.31-1.74,4.35.93,4.35,4.24,0,3.3-.44,5.39-2.35,6.43-2.78,1.52-3.65-4.08-10.35-1.15-2.54,1.11-3.81,1.62-6.35,2.52-2.96,1.05-5.48,1.64-6.09,1.8-1.04.27-.87.74-.87,3.53,0,5.98,0,8.98,0,14.96,0,.78.43,1.11,1.22.9,6.09-1.63,9.13-2.85,15.22-5.74,1.22-.58,1.74-.06,1.74,1.33,0,2.09-.96,3.79-2.52,4.51-2.78,1.29-8.78,3.77-14.44,5.28-.78.21-1.22.75-1.22,1.62,0,7.76,0,11.64,0,19.4,0,1.48-1.3,3.22-5.13,3.83-3.83.61-5.04-.65-5.04-2.39Z"/><path class="cls-2" d="m95.13,103.82c-.17-.84-.61-.73-1.48-.16-7.17,4.73-10.75,7.19-17.92,11.69-.96.6-1.3.99-1.57,2.02-1.22,4.41-1.83,6.61-3.04,11-.52,2.05-1.3,3.34-4.26,5.03-1.91,1.1-3.74,1.74-3.74.09,0-.61.42-1.44.96-3.05.74-2.21,3.91-12.19,7.48-24,2.71-8.96,6.72-18.8,7.65-27.06.2-1.76-3.13.17-3.13-1.23,0-2.26,3.57-6.42,8.35-9.56,4.7-3.08,8.35-3.25,10,.96,3.7,9.07,7.39,18.15,11.05,27.24,2.7,6.58,6.7,2.3,6.7,4.47,0,2-3.13,5.65-6.61,7.82-4.87,3.04-7.57,2.48-10.44-5.29Zm-2.78-4.51c.61-.4.87-.92.87-1.36,0-.17,0-.26-.17-.49-2.78-7.07-4.17-10.59-6.96-17.67-.35-.9-.61-1.42-1.13-1.08s-.7,1.33-1.04,2.42c-2.51,9.08-5.03,18.16-7.57,27.23-.17.46-.17.55-.17.72,0,.43.26.62.87.23,6.12-3.88,9.18-5.96,15.31-10.01Z"/><path class="cls-2" d="m117.91,98.85c0-1.3.7-12.37.7-23.42,0-6.33,0-9.5,0-15.83,0-7.83-3.91-4.38-3.91-6.55,0-2.17,4.09-5.32,9.13-7.74,3.04-1.46,7.91-3.5,12.79-5.02,5.31-1.66,10.18-2.77,13.13-3.03,3.31-.29,4.35,3.11,4.35,6.42s-.44,5.1-2.35,5.19c-2.78.13-3.65-6.34-10.35-4.76-2.54.6-3.81.97-6.35,1.82-2.96.99-5.48,1.96-6.09,2.21-1.04.44-.87.89-.87,3.67,0,5.98,0,8.98,0,14.96,0,.78.43,1.03,1.22.7,6.09-2.52,9.13-3.52,15.22-4.64,1.22-.22,1.74.49,1.74,1.88,0,2.09-.96,3.44-2.52,3.75-2.78.55-8.78,2.06-14.44,4.4-.78.32-1.22.95-1.22,1.82,0,7.76,0,11.64,0,19.4,0,1.48-1.3,3.27-5.13,5.14-3.83,1.87-5.04,1.37-5.04-.37Z"/></svg>