<?xml version="1.0" encoding="UTF-8"?><svg id="Layer_7" xmlns="http://www.w3.org/2000/svg" width="191" height="191.34" viewBox="0 0 191 191.34"><defs><style>.cls-1{fill:#e5dd74;}.cls-2{fill:#de61a9;}</style></defs><path class="cls-1" d="m91.69,12.56c8,0,15.73,1.16,23.04,3.3-33.91,9.95-58.67,41.28-58.67,78.41s24.76,68.46,58.67,78.41c-7.31,2.14-15.04,3.3-23.04,3.3-45.13,0-81.71-36.58-81.71-81.71,0-45.13,36.58-81.71,81.71-81.71Z"/><path class="cls-2" d="m31.63,148.65c-11.54-15.27-15.52-32.78-17.36-51.71-.37-13.14,2-26.31,7.06-38.46,7.23-17.33,3.74-11.72,6.9-15.61s7.39-7.91,11.33-10.92c2.38-1.82,6.23-4.38,10.48-6.71,4.63-2.53,9.46-5.19,12.25-6.22,3.12-1.15,2.1,6.51.47,15.32s-2.78,14.22-5.07,14.57c-3.33.51-.96-16.16-7.79-13.84-2.59.88-3.87,1.35-6.36,2.36-2.9,1.17-5.18,2.09-5.75,2.36-.98.46-1.53,1.39-4.1,7.85-4.83,12.17-7.62,25.1-8.45,38.15-.14,2.15.33,3.34,1.25,3.31,7.15-.23,10.9-.33,18.66-.5,1.55-.03,2.15,2.38,2.16,6.72.03,6.51-.98,10.16-2.96,10.07-3.52-.16-10.99-.78-17.6-1.2-.92-.06-1.35,1.1-1.1,3.45,2.46,16.71,6.41,32.03,14.64,46.95,1.75,3.06,2.35,4.91-.56,2.54-2.91-2.37-5.68-5.29-8.11-8.5Z"/><path class="cls-2" d="m97.99,142.54c-.15-2.84-.71-3.37-1.85-3.34-9.39.17-14.21.03-23.31-.65-1.21-.09-1.62.4-1.73,2.92-.61,10.55-.71,15.54-.38,24.61.22,4.33-.15,6.04-3.03,5.2-1.86-.55-3.86-1.91-4.92-5.96-.39-1.49-.39-2.92-.53-6.06-.83-18.73.88-38.2,3.42-56.77,3.15-23.06,10.05-46.99,12.69-69.43.63-5.34-3.17-4.67-2.74-8.36.71-5.98,4.97-11.38,9.93-11.74,4.87-.35,8.76,5.06,11.21,20.1,6.02,35.77,11.86,71.47,14.45,107.69,1.43,24.01,5.78,16.83,4.7,22.4-1,5.13-5.67,11.05-8.53,11.06-8.39,0-8.5-23.83-9.39-31.68Zm-3.42-19.49c.84,0,1.21-1.11,1.22-2.5,0-.56,0-.83-.23-1.95-3.12-23.95-6.54-47.88-9.33-71.87-.38-3.37-.65-5.38-1.31-5.36-.66.02-.96,2.58-1.49,5.18-4.26,23.84-8.03,47.68-10.87,71.73-.2,1.09-.18,1.36-.16,1.91.05,1.37.45,2.47,1.26,2.51,8.19.33,12.47.41,20.91.35Z"/><path class="cls-2" d="m121.39,163.58c5.79-21.56,8.34-43.59,9.2-66.02.1-15.98-.8-32.06-3.35-47.86-3.43-21.98-7.58-18.67-8.79-24.17-1.22-5.5,2.27-6.12,6.92-4.13,2.81,1.2,7.28,3.52,11.39,6.05,4.48,2.76,7.76,5.09,9.94,6.99,2.44,2.13,8.48,8.36,12.72,14.73,4.24,6.37,5.46,10.2,3.61,9.49-2.68-1.03-10.05-14.93-16.26-17.97-2.36-1.15-3.56-1.7-6.03-2.73-2.87-1.2-5.5-2.32-6.11-2.54-1.05-.38-.34.82,1.59,7.94,3.71,13.76,5.31,27.55,6.34,41.72.1,2.34.67,3.66,1.65,3.68,7.57.19,11.22.3,18.15.55,1.39.05,2.1,2.15,2.07,5.86-.05,5.58-1.49,8.81-3.27,8.94-3.17.23-10.16.44-17.16.78-.97.05-1.57,1.37-1.75,3.93-1.8,17.77-4.74,34.75-10.99,51.57-1.31,3.42-3.69,6.91-7.18,8.42-3.49,1.51-3.82-.99-2.67-5.25Z"/></svg>